<svg width="56" height="56" fill="none" xmlns="http://www.w3.org/2000/svg"><path d="M39.234 29.747a6.442 6.442 0 0 0-2.819.653c-.29-.574-.58-1.085-.63-1.46-.058-.438-.126-.705-.058-1.228.069-.523.376-1.267.37-1.324-.006-.057-.068-.324-.694-.33-.625-.005-1.164.12-1.227.285a6.85 6.85 0 0 0-.261.926c-.108.568-1.25 2.597-1.904 3.66-.21-.415-.392-.779-.432-1.069-.057-.437-.125-.704-.057-1.227.069-.523.375-1.267.37-1.324-.006-.057-.069-.324-.694-.33-.625-.005-1.165.12-1.227.284-.063.165-.13.551-.261.927-.131.375-1.648 3.761-2.046 4.637a24.9 24.9 0 0 1-.506 1.05s-.006.018-.023.046c-.108.21-.17.324-.17.324v.006c-.085.153-.176.295-.222.295-.034 0-.096-.409.012-.966.227-1.176.767-3.006.761-3.068 0-.034.102-.353-.352-.517-.444-.165-.603.108-.642.108-.04 0-.069.096-.069.096s.495-2.057-.943-2.057c-.898 0-2.137.983-2.75 1.87a652.098 652.098 0 0 0-3.097 1.693c-.023-.023-.046-.051-.068-.074-1.74-1.858-4.956-3.17-4.82-5.665.052-.91.364-3.296 6.178-6.194 4.785-2.359 8.592-1.705 9.251-.256.943 2.068-2.04 5.91-6.984 6.467-1.886.21-2.875-.517-3.125-.79-.262-.284-.301-.301-.398-.244-.16.085-.057.34 0 .488.148.387.756 1.069 1.784 1.404.91.295 3.12.46 5.796-.574 2.995-1.16 5.336-4.381 4.649-7.08-.688-2.74-5.234-3.643-9.536-2.114-2.557.909-5.33 2.34-7.324 4.205-2.37 2.216-2.745 4.142-2.592 4.95.552 2.863 4.501 4.727 6.08 6.108l-.215.12c-.79.391-3.802 1.965-4.552 3.63-.852 1.887.136 3.24.79 3.421 2.029.563 4.114-.449 5.234-2.12 1.119-1.67.983-3.84.465-4.835a.086.086 0 0 0-.022-.034c.204-.12.415-.245.62-.364.403-.239.8-.46 1.141-.642-.193.528-.335 1.16-.403 2.068-.085 1.069.352 2.455.926 3 .256.24.557.245.75.245.67 0 .972-.557 1.307-1.216.41-.807.779-1.744.779-1.744s-.46 2.534.79 2.534c.454 0 .915-.591 1.12-.892v.005l.033-.056.074-.12v-.011a49.15 49.15 0 0 0 1.2-2.239c.783-1.546 1.54-3.478 1.54-3.478s.067.472.3 1.256c.137.46.42.966.648 1.455-.182.256-.295.398-.295.398l.005.005c-.148.194-.307.404-.483.608-.62.739-1.358 1.586-1.46 1.83-.12.29-.091.5.136.67.165.126.46.143.762.126.557-.04.949-.176 1.142-.262.301-.108.653-.273.983-.517.608-.449.977-1.09.943-1.938-.017-.466-.17-.932-.358-1.37.057-.079.108-.158.165-.238a26.037 26.037 0 0 0 1.705-2.943s.068.471.301 1.255c.114.398.347.83.551 1.25-.903.734-1.46 1.586-1.66 2.143-.357 1.034-.079 1.5.45 1.608.239.051.58-.062.83-.17a3.78 3.78 0 0 0 1.05-.54c.609-.45 1.194-1.074 1.16-1.92a3.632 3.632 0 0 0-.261-1.137c.767-.319 1.756-.495 3.017-.347 2.705.318 3.24 2.006 3.137 2.716-.102.71-.67 1.097-.858 1.216-.188.12-.25.16-.233.245.023.125.113.119.273.096.221-.04 1.42-.574 1.471-1.88.086-1.671-1.506-3.495-4.318-3.478Zm-20.867 7.035c-.898.977-2.148 1.346-2.688 1.034-.58-.335-.352-1.779.75-2.813.671-.63 1.535-1.216 2.109-1.574.13-.08.324-.193.556-.335l.063-.035.136-.085c.404 1.478.018 2.78-.926 3.808Zm6.535-4.444c-.312.761-.966 2.71-1.364 2.602-.34-.09-.55-1.568-.068-3.028.245-.733.762-1.608 1.063-1.95.488-.545 1.028-.727 1.159-.505.165.29-.597 2.403-.79 2.88Zm5.393 2.58c-.13.068-.256.113-.313.08-.04-.023.057-.114.057-.114s.676-.728.944-1.057c.153-.194.335-.42.528-.676v.073c0 .87-.841 1.455-1.216 1.694Zm4.16-.95c-.097-.067-.08-.295.244-1.005.125-.279.42-.745.926-1.193.057.181.097.358.091.522-.006 1.097-.79 1.506-1.261 1.677Z" fill="#CD6799"/></svg>