<svg width="56" height="56" fill="none" xmlns="http://www.w3.org/2000/svg"><path d="M12.74 23.344s-.757-.547.152-1.276l2.119-1.894s.606-.638 1.247-.082l19.55 14.801v7.098s-.01 1.114-1.44.991L12.74 23.344Z" fill="#2489CA"/><path d="m17.78 27.919-5.04 4.58s-.517.386 0 1.074l2.34 2.128s.556.597 1.377-.082l5.342-4.05-4.02-3.65Z" fill="#1070B3"/><path d="m26.626 27.956 9.242-7.056-.06-7.06s-.395-1.54-1.712-.739L21.8 24.294l4.827 3.662Z" fill="#0877B9"/><path d="M34.368 42.992c.537.549 1.187.369 1.187.369l7.202-3.549c.922-.628.792-1.408.792-1.408V17.212c0-.931-.953-1.253-.953-1.253l-6.242-3.01c-1.364-.842-2.258.152-2.258.152s1.15-.827 1.712.74v28.02c0 .193-.041.382-.123.553-.165.331-.521.64-1.377.511l.06.067Z" fill="#3C99D4"/></svg>