<svg width="57" height="56" fill="none" xmlns="http://www.w3.org/2000/svg"><path d="M44.425 12.444H13.14v31.112h31.285V12.444Z" fill="#F7DF1E"/><path d="M34.155 36.75c.63 1.023 1.45 1.775 2.9 1.775 1.218 0 1.997-.605 1.997-1.441 0-1.003-.8-1.358-2.14-1.941l-.736-.314c-2.121-.899-3.53-2.025-3.53-4.405 0-2.192 1.68-3.861 4.305-3.861 1.87 0 3.213.646 4.181 2.34l-2.289 1.462c-.504-.899-1.048-1.253-1.892-1.253-.861 0-1.407.543-1.407 1.253 0 .877.546 1.232 1.808 1.775l.735.313c2.497 1.066 3.908 2.151 3.908 4.593 0 2.632-2.08 4.074-4.872 4.074-2.73 0-4.494-1.294-5.357-2.99l2.39-1.38Zm-10.385.254c.462.814.882 1.503 1.892 1.503.966 0 1.575-.376 1.575-1.837v-9.94h2.94v9.98c0 3.027-1.785 4.405-4.39 4.405-2.354 0-3.717-1.212-4.41-2.67l2.393-1.441Z" fill="#000"/></svg>