<svg width="56" height="56" fill="none" xmlns="http://www.w3.org/2000/svg"><path d="M14.267 33.634c.03.067.063.13.1.192.016.036.04.074.06.107.034.068.07.132.106.197l.203.342c.038.064.074.126.117.188.071.122.155.242.23.363.033.05.064.101.102.152.142.222.272.406.41.585.099.133.197.264.304.395.035.05.074.099.11.148l.287.347c.035.04.07.087.107.129.127.153.262.3.397.45 0 .003.004.006.006.01.168.21.348.397.545.562l.005.006c.104.106.207.21.317.315l.131.125c.144.135.288.269.44.398.002 0 .004.003.006.004l.074.065c.132.115.266.23.402.336l.162.136c.11.088.224.17.337.258l.176.135c.121.09.25.178.372.267.046.032.091.065.138.094l.037.03.365.239.155.103c.19.122.38.236.57.35.054.028.108.057.159.089.14.08.285.162.426.235.078.045.159.082.239.122.097.055.198.108.302.162.028.01.052.018.075.031l.005-.005.125.061c.155.078.317.152.486.224.03.013.065.026.098.044.187.082.374.16.567.235.044.013.09.035.136.052.175.066.355.133.534.197l.065.023c.198.068.394.133.596.194.047.013.095.03.144.042.206.063.406.136.614.175 13.317 2.415 17.187-7.967 17.187-7.967-3.251 4.213-9.021 5.324-14.485 4.087-.202-.046-.404-.111-.61-.17a16.443 16.443 0 0 1-.859-.272l.123.038-.08-.031c-.176-.06-.346-.126-.519-.192a2.03 2.03 0 0 0-.128-.05l-.014-.003c-.19-.077-.376-.154-.56-.236-.04-.013-.074-.031-.114-.047a17.815 17.815 0 0 1-.648-.298l.179.08a1.898 1.898 0 0 1-.138-.068c-.122-.057-.244-.122-.363-.183a4.909 4.909 0 0 1-.268-.137l.026.013c-.147-.078-.293-.163-.44-.242-.045-.03-.096-.057-.146-.085a17.07 17.07 0 0 1-.65-.397l.08.05a2.663 2.663 0 0 1-.16-.108l.008.005a7.814 7.814 0 0 1-.41-.27c-.044-.028-.084-.06-.13-.09-.14-.096-.277-.194-.412-.296l.031.022c-.054-.044-.112-.085-.17-.128-.115-.09-.23-.175-.344-.268l-.153-.122c-.163-.13-.323-.264-.48-.4l-.001-.002-.45-.409-.13-.121c-.106-.108-.215-.21-.324-.317l-.125-.13a11.64 11.64 0 0 1-.393-.408l-.008-.009-.022-.018a22.06 22.06 0 0 1-.406-.457c-.035-.04-.067-.083-.103-.126l-.295-.357a17.855 17.855 0 0 1-.389-.507l-.051-.072c-3.031-4.117-4.128-9.799-1.703-14.46l-2.141 2.707c-2.755 3.94-2.414 9.063-.307 13.246.048.103.1.198.153.296Z" fill="#1266A9"/><path d="m23.544 27.959-.014-.021-.012-.016.026.037Z" fill="#000"/><path d="m24.994 29.66.116.116c.148.143.3.281.454.42l.02.017c.155.137.33.281.51.421l.027.02c.045.03.082.066.125.095.181.14.364.274.555.408l.02.011c.08.059.165.112.256.169.036.023.078.054.117.077.137.089.272.17.41.255.023.009.042.02.063.03.116.07.243.14.365.201.043.027.084.046.129.07.086.043.172.089.255.133l.041.018c.175.085.354.166.53.245.043.017.081.031.119.05.143.061.29.121.434.176.065.022.126.047.187.067.132.05.27.095.401.14l.182.058c.19.059.381.135.582.166 10.284 1.693 12.664-6.185 12.664-6.185-2.143 3.069-6.29 4.531-10.71 3.389-.22-.056-.439-.118-.655-.188l.074.02c-.063-.016-.117-.036-.177-.054-.134-.046-.273-.092-.404-.14l-.187-.07c-.145-.058-.293-.112-.434-.175-.044-.02-.084-.032-.118-.052-.181-.081-.364-.162-.542-.247l-.267-.139-.154-.078c-.12-.062-.23-.127-.344-.193a.729.729 0 0 1-.084-.046h.004c-.137-.085-.28-.168-.412-.255-.044-.024-.085-.054-.126-.08l-.27-.175c-.186-.13-.369-.268-.554-.403-.042-.038-.082-.069-.122-.102-1.943-1.521-3.476-3.599-4.203-5.952-.766-2.446-.598-5.189.726-7.415l-1.627 2.292c-1.997 2.853-1.885 6.667-.33 9.685.285.557.573 1.028.89 1.476.296.423.622.918 1.017 1.258.14.16.29.311.447.465Z" fill="#1266A9"/><path d="m15.602 35.767-.005-.007-.01-.012.015.02Zm5.39-.964.013.01.003.003-.016-.013Z" fill="#000"/><path d="M30.16 14.294c-1.179 1.72-1.292 3.857-.48 5.753.862 2.014 2.624 3.596 4.677 4.345.084.033.166.06.253.091l.114.035c.12.038.24.082.363.109 5.679 1.09 7.216-2.901 7.63-3.488-1.352 1.931-3.62 2.395-6.401 1.722a6.164 6.164 0 0 1-.713-.22l.042.014c-.29-.1-.573-.217-.85-.35l.05.022a8.365 8.365 0 0 1-1.412-.86c-2.487-1.88-4.024-5.46-2.401-8.375l-.872 1.202Z" fill="#1266A9"/></svg>