<svg width="56" height="56" fill="none" xmlns="http://www.w3.org/2000/svg"><path d="m41.716 12.444-2.5 27.997-11.233 3.115-11.203-3.11-2.496-28.002h27.432Z" fill="#264DE4"/><path d="m37.077 38.658 2.136-23.924H28v26.441l9.077-2.517Z" fill="#2965F1"/><path d="m20.007 25.12.308 3.433H28V25.12h-7.993ZM28 18.168h-8.612l.313 3.434H28v-3.434Zm0 19.443v-3.573l-.015.004-3.825-1.033-.244-2.739h-3.448l.481 5.393 7.035 1.953.016-.005Z" fill="#EBEBEB"/><path d="m32.217 28.553-.399 4.454-3.83 1.034v3.573l7.04-1.951.052-.58.807-9.042.084-.922.62-6.95h-8.603v3.433h4.84l-.313 3.517h-4.527v3.434h4.229Z" fill="#fff"/></svg>